# xmcd
#
# Track frame offsets:
#	150
#	9985
#	25062
#	34456
#	43676
#	53479
#	64256
#	78017
#	89730
#	99783
#	110365
#	123046
#	135511
#	146470
#	156102
#	165766
#	176498
#	185099
#	197505
#	207861
#	217536
#	227847
#	237477
#	248113
#	257677
#	268569
#	281581
#	291611
#	304474
#	314776
#	328245
#	338489
#	348864
#
# Disc length: 4813 seconds
#
# Revision: 0
# Processed by: cddbd v1.5.2PL0 Copyright (c) Steve Scherf et al.
# Submitted via: audiograbber 1.83.01
#
DISCID=d212cb21
DTITLE=George Jones - Birth Of A Legend CD6
DYEAR=2016
DGENRE=Country
TTITLE0=Nobody's Lonesome For Me
TTITLE1=Cold, Cold Heart
TTITLE2=Why Don't You Love Me
TTITLE3=Honky Tonkin'
TTITLE4=Jambalaya (On The Bayou)
TTITLE5=I Can't Help It
TTITLE6=Family Bible
TTITLE7=The Window Up Above
TTITLE8=I Wouldn't Know About That
TTITLE9=With Half A Heart
TTITLE10=Aching Breaking Heart
TTITLE11=Battle Of Love
TTITLE12=Tender Years
TTITLE13=When My Heart Hurts No More
TTITLE14=Did I Ever Tell You
TTITLE15=Not Even Friends
TTITLE16=I Want To Be Where You're Gonna Be
TTITLE17=Waltz Of The Angels
TTITLE18=Are You Mine
TTITLE19=One Excuse Is As Good As Another
TTITLE20=Yearning
TTITLE21=Looking Back To See
TTITLE22=One By One
TTITLE23=If You Don't Somebody Else Will
TTITLE24=When Two Worlds Collide
TTITLE25=Baby (You've Got What It Takes)
TTITLE26=Talk About Lovin'
TTITLE27=I Don't Hear You
TTITLE28=Why Baby Why (edited)
TTITLE29=Seasons Of My Heart (ST-2333 RE)
TTITLE30=Heartbreak Hotel (long edit)
TTITLE31=Let Me Be Your Salty Dog
TTITLE32=Back To The Country
EXTD=
EXTT0=
EXTT1=
EXTT2=
EXTT3=
EXTT4=
EXTT5=
EXTT6=
EXTT7=
EXTT8=
EXTT9=
EXTT10=
EXTT11=
EXTT12=
EXTT13=
EXTT14=
EXTT15=
EXTT16=
EXTT17=
EXTT18=
EXTT19=
EXTT20=
EXTT21=
EXTT22=
EXTT23=
EXTT24=
EXTT25=
EXTT26=
EXTT27=
EXTT28=
EXTT29=
EXTT30=
EXTT31=
EXTT32=
PLAYORDER=
